<?xml version="1.0" encoding="utf-8"?>
<!-- Generator: Adobe Illustrator 16.0.0, SVG Export Plug-In . SVG Version: 6.00 Build 0)  -->
<!DOCTYPE svg PUBLIC "-//W3C//DTD SVG 1.1//EN" "http://www.w3.org/Graphics/SVG/1.1/DTD/svg11.dtd">
<svg version="1.1" xmlns="http://www.w3.org/2000/svg" xmlns:xlink="http://www.w3.org/1999/xlink" x="0px" y="0px"
	 width="301.999px" height="265.332px" viewBox="0 0 301.999 265.332" enable-background="new 0 0 301.999 265.332"
	 xml:space="preserve">
<g id="Layer_1" display="none">
	<g display="inline">
		<g>
			<g opacity="0.43">
				<path fill="#EDE6F5" d="M24.574,220.416c-9.277-23.417,0.514-52.822,21.978-66.002c12.972-7.966,28.637-10.113,42.59-16.2
					c21.467-9.364,37.716-27.443,56.944-40.816c14.278-9.931,30.531-17.36,47.739-19.879c17.209-2.518,35.412,0.107,50.395,8.943
					c15.908,9.378,27.43,25.365,32.918,42.995c5.491,17.63,5.202,36.771,0.852,54.714c-1.663,6.861-3.957,13.682-7.983,19.479
					s-9.97,10.517-16.895,11.879"/>
			</g>
			<path fill="#EDE6F5" d="M266.417,212.76c0,0-240.459,5.467-241.874,6.23c0,0,20.097,32.331,81.122,30.652
				C166.692,247.963,269.026,245.043,266.417,212.76z"/>
			<path fill="#552E3B" d="M136.806,104.162c-6.776,2.46-4.397-5.272-4.638-8.557c-0.239-3.285-0.052-6.717-1.408-9.718
				c-1.082-2.395-3.133-4.505-3.139-7.133c-0.005-1.997,1.197-3.776,1.701-5.707c0.696-2.66,0.048-5.498,0.494-8.21
				c0.853-5.198,6.246-9.206,11.468-8.523c2.614,0.341,5.137,1.686,7.747,1.326c2.875-0.397,5.033-2.728,7.538-4.199
				c3.494-2.053,8.036-2.383,11.644-0.534c3.608,1.849,6.039,5.943,5.601,9.973c-0.438,4.031-3.933,7.61-7.981,7.834
				c-2.361,0.131-4.642-0.772-6.935-1.355c-2.294-0.583-4.908-0.8-6.862,0.533c-2.466,1.682-3.527,5.555-6.499,5.831
				c-1.569,0.146-2.979-0.851-4.421-1.486c-1.442-0.635-3.459-0.758-4.277,0.589c-0.676,1.114-0.115,2.525,0.036,3.819
				c0.275,2.366-0.281,4.729-2.422,5.772c-0.864,6.531,1.11,12.795,3.054,19.091"/>
			<polygon fill="#B8ABD6" points="81.001,217.697 62.708,115.373 121.544,115.373 143.32,215.761 			"/>
			<polygon fill="#DDD2F3" points="85.525,217.556 66.246,115.373 125.08,115.373 146.857,215.761 			"/>
			<path opacity="0.44" fill="#B8ABD6" d="M125.72,115.373c0,0-20.344,8.972-26.038,18.606
				c-4.919,8.323-28.464,57.284-19.736,64.141c8.729,6.859,66.686,4.675,66.686,4.675l3.767-15.584l-45.514-7.795l27.896-24.52
				L125.72,115.373z"/>
			<path fill="#6338A1" d="M176.66,140.203c-0.32-0.994-2.576-22.644-25.397-22.109c-21.396,0.5-33.303,1.738-40.756,18.383
				l7.949,31.456l1.646,48.67l61.705-1.988L176.66,140.203z"/>
			<path fill="#6338A1" d="M119.729,124.436c0,0-8.731,4.633-14.426,14.267c-4.919,8.324-28.463,57.283-19.736,64.14
				c8.729,6.859,66.685,4.677,66.685,4.677l3.768-15.586l-45.513-7.794l7.948-16.207L119.729,124.436z"/>
			<path fill="#6338A1" d="M165.387,121.729c0,0,21.794,14.615,44.536,52.646l-9.19,22.505l-23.983-30.427L165.387,121.729z"/>
			<polygon fill="#B8ABD6" points="142.096,219.335 192.038,219.335 194.51,215.071 142.096,216.577 			"/>
			<path fill="#F9C8C7" d="M154.977,197.516h20.458c0,0,12.52,11.155,10.352,11.697c-2.166,0.543-9.809-7.006-9.809-7.006
				l5.828,12.951c0,0-8.951-1.218-11.859-3.655s-5.616-4.334-5.616-4.334l-11.642,1.083L154.977,197.516z"/>
			<g>
				<path fill="#452775" d="M119.406,124.861c-0.002-0.012,0.184-0.04,0.541-0.083c0.179-0.027,0.4-0.047,0.665-0.035
					c0.263,0.002,0.568-0.002,0.907,0.056c1.35,0.147,3.323,0.848,5.123,2.541c0.896,0.84,1.741,1.91,2.412,3.191
					c0.688,1.277,1.116,2.789,1.324,4.395c0.424,3.233-0.167,6.816-1.201,10.376c-2.076,7.146-4.962,13.267-7.343,17.505
					c-1.192,2.12-2.24,3.79-2.997,4.918c-0.37,0.571-0.68,0.998-0.884,1.293c-0.208,0.291-0.321,0.438-0.331,0.433
					c-0.011-0.006,0.083-0.17,0.271-0.475c0.207-0.331,0.483-0.771,0.828-1.326c0.72-1.151,1.731-2.836,2.893-4.966
					c2.316-4.255,5.154-10.369,7.22-17.48c1.027-3.538,1.616-7.068,1.218-10.236c-0.324-3.188-1.849-5.792-3.583-7.444
					c-1.738-1.68-3.648-2.399-4.969-2.586C120.162,124.744,119.408,124.916,119.406,124.861z"/>
			</g>
			<g>
				<path fill="#452775" d="M173.623,137.698c0.012-0.001,0.044,0.148,0.094,0.433c0.052,0.322,0.12,0.736,0.201,1.249
					c0.178,1.127,0.425,2.686,0.729,4.592c0.62,3.918,1.466,9.256,2.399,15.153c0.905,5.928,1.667,11.301,2.1,15.206
					c0.22,1.954,0.359,3.538,0.435,4.635c0.026,0.519,0.048,0.938,0.064,1.265c0.01,0.287,0.01,0.44-0.004,0.44
					c-0.013,0.002-0.036-0.149-0.068-0.437c-0.034-0.325-0.077-0.742-0.132-1.257c-0.117-1.093-0.295-2.668-0.546-4.615
					c-0.495-3.893-1.297-9.258-2.202-15.182c-0.909-5.923-1.743-11.283-2.298-15.171c-0.274-1.945-0.484-3.521-0.614-4.612
					c-0.056-0.516-0.1-0.933-0.135-1.258C173.619,137.852,173.611,137.7,173.623,137.698z"/>
			</g>
			<g>
				<ellipse opacity="0.14" fill="#B8ABD6" cx="103.292" cy="229.393" rx="11.405" ry="1.986"/>
				<path fill="#FAC28C" d="M107.405,208.409c0,0-9.848-3.728-19.033,0v2.128c0,0-3.327-0.265-3.327,2.929
					c0,3.194,1.065,7.453,5.324,9.184l1.863,5.856c0,0,7.986,1.996,12.111,0c0,0,0.934-3.066,1.73-6.255
					C106.648,219.951,107.405,208.409,107.405,208.409z M86.667,214.643c-0.221-2.689,1.989-1.813,1.989-1.813l1.171,7.606
					C89.828,220.436,87.077,219.628,86.667,214.643z"/>
				<path fill="#DB9D6A" d="M106.079,208.633c0,0-8.637-2.08-16.251,0.072C89.828,208.705,97.642,215.246,106.079,208.633z"/>
				<g>
					<path fill="#B28560" d="M106.948,217.462c0.009,0.022-0.216,0.132-0.634,0.31c-0.416,0.182-1.034,0.404-1.811,0.643
						c-1.55,0.477-3.768,0.935-6.251,1.021c-2.484,0.078-4.727-0.231-6.306-0.604c-0.79-0.186-1.422-0.366-1.848-0.522
						c-0.429-0.147-0.661-0.241-0.654-0.265c0.019-0.061,0.975,0.235,2.555,0.54c1.577,0.308,3.792,0.572,6.243,0.495
						c2.449-0.084,4.641-0.497,6.194-0.908C105.99,217.762,106.926,217.404,106.948,217.462z"/>
				</g>
				<g>
					<path fill="#B28560" d="M106.514,215.611c0.011,0.022-0.206,0.146-0.607,0.349c-0.398,0.21-0.998,0.469-1.756,0.744
						c-1.512,0.555-3.704,1.091-6.171,1.193c-2.47,0.096-4.697-0.266-6.249-0.698c-0.776-0.214-1.396-0.423-1.81-0.601
						c-0.417-0.172-0.643-0.277-0.633-0.299c0.023-0.063,0.951,0.293,2.504,0.656c1.55,0.364,3.744,0.678,6.174,0.586
						c2.428-0.102,4.589-0.588,6.105-1.077C105.588,215.98,106.487,215.554,106.514,215.611z"/>
				</g>
				<g opacity="0.07">
					<path fill="#F9FAFD" d="M90.141,208.696c-0.746-0.841-0.346-2.243,0.481-3.007c0.827-0.767,1.947-1.104,2.962-1.59
						c1.016-0.486,2.031-1.257,2.227-2.365c0.374-2.126-2.427-4.011-1.717-6.05c0.667-1.916,3.669-1.778,4.83-3.444
						c1.271-1.826-0.458-4.445,0.329-6.527c0.54-1.43,2.236-2.208,3.75-1.988c1.514,0.219,2.811,1.261,3.674,2.524
						c0.863,1.261,1.352,2.736,1.802,4.198c0.587,1.909,1.104,4.075,0.124,5.814c-0.497,0.881-1.379,1.795-0.997,2.73
						c0.231,0.568,0.852,0.857,1.292,1.284c1.086,1.057,0.962,2.846,0.459,4.276c-1.366,3.877-5.077,6.82-9.165,7.268
						c-4.087,0.446-8.347-1.628-10.517-5.12"/>
				</g>
			</g>
			<g>
				
					<ellipse transform="matrix(0.5756 -0.8177 0.8177 0.5756 -46.1153 197.873)" fill="#A869C5" cx="167.57" cy="143.363" rx="2.583" ry="0.179"/>
			</g>
			<path fill="#F9FAFD" d="M136.863,118.842c0,0,12.575,32.604,21.352,43.62c0,0,3.69-32.155,0-43.764
				C158.215,118.698,141.374,116.679,136.863,118.842z"/>
			<path fill="#F9C8C7" d="M134.777,65.834l-0.844,19.34c0,0-5.941-0.073-5.937,5.381c0.007,6.853,6.441,5.704,6.441,5.704
				s-1.33,13.076,16.61,14.154c20.985,1.263,16.522-31.539,15.713-46.936L134.777,65.834z"/>
			<path fill="#F9C8C7" d="M158.215,95.336l-1.041,23.584c-0.291,6.613-7.298,10.728-13.219,7.767
				c-0.076-0.039-0.153-0.077-0.228-0.113c-3.187-1.596-5.146-4.898-5.039-8.46c0.252-8.286,0.34-22.568,0.34-22.568L158.215,95.336
				z"/>
			<g>
				<path fill="#452775" d="M158.215,162.462c-0.008,0.01-0.151-0.114-0.423-0.357c-0.269-0.239-0.658-0.604-1.156-1.079
					c-0.997-0.947-2.407-2.355-4.126-4.11c-1.723-1.755-3.747-3.869-6.089-6.115c-1.167-1.123-2.448-2.269-3.59-3.645
					c-1.136-1.362-2.139-3.014-2.471-4.915c-0.274-1.504-0.101-3.094,0.623-4.37l0.268,0.219c-0.68,0.593-1.649,0.645-2.421,0.397
					c-0.785-0.245-1.469-0.748-1.912-1.408c-0.877-1.33-0.968-2.875-1.058-4.227c-0.146-2.73-0.277-5.167-0.387-7.217
					c-0.096-2.011-0.173-3.635-0.229-4.796c-0.019-0.538-0.034-0.966-0.046-1.292c-0.007-0.295-0.005-0.449,0.006-0.45
					c0.011,0,0.031,0.153,0.059,0.446c0.027,0.326,0.063,0.754,0.107,1.29c0.082,1.159,0.194,2.781,0.336,4.789
					c0.131,2.048,0.288,4.483,0.463,7.212c0.096,1.346,0.208,2.837,1.028,4.058c0.399,0.591,1.024,1.049,1.733,1.267
					c0.701,0.22,1.526,0.162,2.091-0.333l0.777-0.682l-0.508,0.901c-0.673,1.191-0.842,2.692-0.579,4.135
					c0.318,1.819,1.277,3.413,2.389,4.756c1.116,1.352,2.382,2.494,3.549,3.629c2.335,2.269,4.343,4.4,6.042,6.178
					c1.694,1.778,3.074,3.209,4.04,4.188c0.465,0.471,0.833,0.846,1.112,1.125C158.096,162.313,158.225,162.452,158.215,162.462z"/>
			</g>
			<g>
				<path fill="#452775" d="M158.215,118.699c0.008-0.008,0.102,0.064,0.275,0.212c0.172,0.147,0.421,0.372,0.73,0.677
					c0.62,0.609,1.487,1.544,2.381,2.864c0.443,0.66,0.897,1.413,1.324,2.255c0.431,0.837,0.878,1.778,1.1,2.848
					c0.241,1.06,0.316,2.234,0.105,3.426c-0.191,1.193-0.742,2.401-1.653,3.357l0.006-0.236c0.618,0.695,1.031,1.591,1.217,2.54
					c0.189,0.95,0.193,1.94,0.107,2.924c-0.147,1.63-0.484,3.173-0.748,4.675c-0.281,1.499-0.57,2.942-0.859,4.314
					c-0.578,2.743-1.165,5.199-1.684,7.254c-0.522,2.056-0.981,3.709-1.313,4.847c-0.163,0.54-0.295,0.973-0.395,1.308
					c-0.096,0.296-0.151,0.451-0.164,0.447c-0.01-0.004,0.022-0.164,0.094-0.467c0.086-0.339,0.194-0.778,0.329-1.324
					c0.292-1.149,0.715-2.809,1.203-4.87c0.488-2.059,1.047-4.519,1.605-7.261c0.281-1.372,0.563-2.813,0.84-4.312
					c0.257-1.5,0.59-3.05,0.735-4.642c0.084-0.963,0.08-1.921-0.1-2.824c-0.175-0.903-0.559-1.732-1.129-2.379l-0.104-0.121
					l0.109-0.116c0.86-0.895,1.387-2.031,1.578-3.172c0.211-1.14,0.147-2.275-0.076-3.305c-0.205-1.04-0.622-1.952-1.041-2.793
					c-0.411-0.84-0.848-1.59-1.274-2.251c-0.855-1.322-1.691-2.271-2.279-2.904c-0.283-0.292-0.511-0.529-0.69-0.715
					C158.29,118.795,158.209,118.706,158.215,118.699z"/>
			</g>
			<g>
				
					<ellipse transform="matrix(0.0684 0.9977 -0.9977 0.0684 327.8694 8.9973)" fill="#452775" cx="159.117" cy="180.053" rx="17.504" ry="0.178"/>
			</g>
			<g>
				<path fill="#452775" d="M163.453,171.93c-0.004-0.017,0.164-0.082,0.475-0.048c0.304,0.031,0.769,0.171,1.161,0.598
					c0.396,0.415,0.614,1.169,0.357,1.903c-0.229,0.746-1.071,1.34-1.973,1.269c-0.93-0.063-1.592-0.802-1.808-1.515
					c-0.229-0.728-0.063-1.47,0.306-1.914c0.371-0.455,0.855-0.593,1.163-0.604c0.314-0.008,0.475,0.082,0.466,0.1
					c-0.006,0.028-0.171-0.01-0.452,0.04c-0.273,0.048-0.687,0.211-0.976,0.618c-0.291,0.396-0.406,1.037-0.195,1.659
					c0.203,0.61,0.778,1.217,1.52,1.259c0.746,0.056,1.435-0.415,1.64-1.023c0.231-0.612,0.078-1.252-0.239-1.627
					c-0.315-0.389-0.72-0.557-0.993-0.626C163.623,171.945,163.455,171.961,163.453,171.93z"/>
			</g>
			<g>
				<path fill="#452775" d="M164.566,185.793c-0.004-0.019,0.163-0.082,0.475-0.048c0.303,0.031,0.77,0.173,1.161,0.596
					c0.396,0.415,0.614,1.173,0.356,1.903c-0.229,0.745-1.071,1.344-1.973,1.269c-0.929-0.061-1.591-0.802-1.807-1.513
					c-0.229-0.728-0.062-1.468,0.308-1.914c0.37-0.455,0.854-0.591,1.16-0.603c0.315-0.01,0.475,0.08,0.467,0.096
					c-0.006,0.03-0.172-0.008-0.453,0.042c-0.272,0.05-0.684,0.214-0.975,0.618c-0.289,0.396-0.407,1.039-0.195,1.659
					c0.203,0.608,0.777,1.215,1.521,1.259c0.744,0.056,1.432-0.415,1.638-1.025c0.231-0.61,0.079-1.25-0.239-1.625
					c-0.315-0.389-0.721-0.557-0.993-0.624C164.738,185.811,164.57,185.822,164.566,185.793z"/>
			</g>
			<g>
				<path fill="#452775" d="M163.15,173.048c0.052,0.086,0.042,0.186,0,0.25c-0.042,0.062-0.132,0.109-0.229,0.096
					c-0.098-0.013-0.155-0.16-0.065-0.294C162.945,172.967,163.102,172.963,163.15,173.048z"/>
			</g>
			<g>
				<circle fill="#452775" cx="164.051" cy="173.968" r="0.181"/>
			</g>
			<g>
				
					<ellipse transform="matrix(0.6252 -0.7805 0.7805 0.6252 -84.5062 198.0967)" fill="#452775" cx="163.994" cy="187.031" rx="0.245" ry="0.177"/>
			</g>
			<g>
				
					<ellipse transform="matrix(0.7382 -0.6746 0.6746 0.7382 -83.6816 160.5743)" fill="#452775" cx="165.047" cy="188.104" rx="0.284" ry="0.177"/>
			</g>
			<g>
				
					<ellipse transform="matrix(0.191 -0.9816 0.9816 0.191 -73.4849 314.1924)" fill="#452775" cx="153.864" cy="201.676" rx="9.145" ry="0.179"/>
			</g>
			<g>
				
					<ellipse transform="matrix(0.209 -0.9779 0.9779 0.209 -80.3817 301.448)" fill="#452775" cx="146.155" cy="200.414" rx="8.998" ry="0.178"/>
			</g>
			<g>
				
					<ellipse transform="matrix(0.9819 0.1892 -0.1892 0.9819 38.3065 -22.6718)" fill="#452775" cx="137.889" cy="189.282" rx="18.649" ry="0.177"/>
			</g>
			<g>
				
					<ellipse transform="matrix(0.9969 0.0793 -0.0793 0.9969 17.0073 -10.1378)" fill="#452775" cx="136.157" cy="209.083" rx="16.011" ry="0.178"/>
			</g>
			<g>
				<path fill="#452775" d="M161.43,215.274c-0.087,0.021-0.546-1.68-0.71-3.839c-0.167-2.158,0.024-3.909,0.116-3.901
					c0.104,0.004,0.071,1.743,0.241,3.875C161.237,213.539,161.535,215.252,161.43,215.274z"/>
			</g>
			<g>
				
					<ellipse transform="matrix(0.9969 -0.0786 0.0786 0.9969 -11.5034 13.7785)" fill="#452775" cx="169.242" cy="152.988" rx="4.845" ry="0.178"/>
			</g>
			<g>
				<path fill="#452775" d="M204.411,188.694c-0.076,0.064-6.282-7.443-13.861-16.765c-7.579-9.326-13.662-16.933-13.586-16.993
					c0.076-0.063,6.282,7.443,13.863,16.768C198.406,181.024,204.489,188.635,204.411,188.694z"/>
			</g>
			<g>
				<path fill="#452775" d="M124.551,186.543c-0.099,0.006-0.591-5.723-1.102-12.799s-0.845-12.816-0.746-12.824
					c0.098-0.006,0.591,5.725,1.102,12.801C124.314,180.793,124.648,186.536,124.551,186.543z"/>
			</g>
			<g>
				<path fill="#452775" d="M127.505,216.403c-0.079,0.04-0.872-1.642-1.183-3.894c-0.326-2.249-0.032-4.086,0.055-4.07
					c0.109,0.008-0.021,1.821,0.298,4.021C126.979,214.66,127.608,216.367,127.505,216.403z"/>
			</g>
			<g>
				
					<ellipse transform="matrix(0.6437 0.7652 -0.7652 0.6437 174.3708 -77.02)" fill="#A869C5" cx="169.906" cy="148.766" rx="1.628" ry="0.178"/>
			</g>
			<g>
				
					<ellipse transform="matrix(0.5641 -0.8257 0.8257 0.5641 -75.3477 184.4169)" fill="#A869C5" cx="137.001" cy="163.576" rx="1.982" ry="0.178"/>
			</g>
			<g>
				
					<ellipse transform="matrix(0.7251 0.6886 -0.6886 0.7251 150.3201 -42.0319)" fill="#A869C5" cx="127.806" cy="167.263" rx="2.365" ry="0.179"/>
			</g>
			<g>
				<path fill="#A869C5" d="M131.217,159.859c-0.073,0.056-0.694-0.696-1.04-1.829c-0.352-1.131-0.262-2.104-0.17-2.097
					c0.104-0.004,0.176,0.92,0.512,1.991C130.844,158.999,131.305,159.801,131.217,159.859z"/>
			</g>
			<g>
				<path fill="#A869C5" d="M135.794,152.131c-0.038,0.087-0.896-0.225-1.786-0.896c-0.894-0.667-1.432-1.404-1.36-1.464
					c0.077-0.069,0.713,0.536,1.575,1.179C135.079,151.596,135.839,152.038,135.794,152.131z"/>
			</g>
			<g>
				
					<ellipse transform="matrix(0.5069 -0.862 0.862 0.5069 -66.3826 207.3488)" fill="#A869C5" cx="148.047" cy="161.698" rx="1.788" ry="0.178"/>
			</g>
			<g>
				<path fill="#A869C5" d="M143.791,157.506c-0.093,0.02-0.368-0.993-0.439-2.278c-0.076-1.282,0.083-2.317,0.178-2.31
					c0.101,0.007,0.104,1.033,0.178,2.29C143.777,156.467,143.892,157.487,143.791,157.506z"/>
			</g>
			<g>
				<path fill="#A869C5" d="M143.76,172.986c-0.085,0.036-0.552-0.969-0.725-2.31c-0.18-1.342,0.013-2.433,0.104-2.421
					c0.104,0.008,0.075,1.077,0.25,2.373C143.555,171.926,143.859,172.95,143.76,172.986z"/>
			</g>
			<g>
				<path fill="#A869C5" d="M138.678,176.907c-0.062,0.072-0.873-0.582-1.61-1.619c-0.743-1.035-1.097-2.015-1.011-2.051
					c0.094-0.044,0.58,0.84,1.301,1.843C138.072,176.086,138.75,176.836,138.678,176.907z"/>
			</g>
			<g>
				
					<ellipse transform="matrix(0.8135 -0.5815 0.5815 0.8135 -80.4953 109.2508)" fill="#A869C5" cx="130.106" cy="180.141" rx="1.691" ry="0.179"/>
			</g>
			<g>
				<path fill="#A869C5" d="M127.104,175.38c-0.058,0.073-0.562-0.233-0.963-0.824c-0.405-0.588-0.511-1.168-0.42-1.194
					c0.097-0.032,0.34,0.453,0.714,0.993C126.803,174.897,127.169,175.3,127.104,175.38z"/>
			</g>
			<g>
				
					<ellipse transform="matrix(0.2788 -0.9604 0.9604 0.2788 -79.7125 266.9276)" fill="#A869C5" cx="137.858" cy="186.535" rx="1.846" ry="0.177"/>
			</g>
			<g>
				<path fill="#A869C5" d="M145.371,186.736c-0.066,0.063-0.769-0.595-1.297-1.644c-0.535-1.047-0.651-2.005-0.56-2.019
					c0.102-0.023,0.366,0.857,0.877,1.854C144.895,185.933,145.449,186.668,145.371,186.736z"/>
			</g>
			<g>
				
					<ellipse transform="matrix(0.8325 0.5541 -0.5541 0.8325 128.4167 -53.3141)" fill="#A869C5" cx="152.372" cy="185.701" rx="2.127" ry="0.179"/>
			</g>
			<g>
				<path fill="#A869C5" d="M155.11,176.7c0.063,0.075-0.59,0.722-1.457,1.448c-0.87,0.724-1.625,1.248-1.688,1.172
					c-0.063-0.073,0.59-0.722,1.459-1.447C154.291,177.15,155.048,176.624,155.11,176.7z"/>
			</g>
			<g>
				
					<ellipse transform="matrix(0.5909 -0.8067 0.8067 0.5909 -82.9214 191.1761)" fill="#A869C5" cx="147.049" cy="177.353" rx="0.892" ry="0.178"/>
			</g>
			<g>
				<path fill="#A869C5" d="M153.232,170.876c-0.079,0.064-0.774-0.678-1.714-1.491c-0.937-0.822-1.767-1.408-1.713-1.496
					c0.047-0.082,0.983,0.383,1.947,1.227C152.719,169.955,153.305,170.82,153.232,170.876z"/>
			</g>
			<g>
				<path fill="#A869C5" d="M135.993,146.678c-0.082-0.065,0.627-1.022,1.246-2.335c0.628-1.311,0.921-2.464,1.024-2.442
					c0.091,0.012-0.052,1.237-0.702,2.595C136.919,145.856,136.06,146.74,135.993,146.678z"/>
			</g>
			<g>
				<path fill="#A869C5" d="M132.662,142.951c-0.094,0.02-0.372-1.05-0.463-2.404c-0.095-1.353,0.035-2.45,0.13-2.445
					c0.102,0.004,0.132,1.09,0.226,2.421C132.644,141.854,132.762,142.934,132.662,142.951z"/>
			</g>
			<g>
				<path fill="#A869C5" d="M132.781,128.791c-0.019,0.09-0.807-0.047-1.577-0.626c-0.775-0.573-1.132-1.289-1.051-1.333
					c0.087-0.059,0.546,0.519,1.264,1.046C132.127,128.415,132.813,128.691,132.781,128.791z"/>
			</g>
			<g>
				
					<ellipse transform="matrix(0.9043 -0.4268 0.4268 0.9043 -39.9174 66.796)" fill="#A869C5" cx="129.046" cy="122.443" rx="1.378" ry="0.178"/>
			</g>
			<g>
				
					<ellipse transform="matrix(-0.1191 0.9929 -0.9929 -0.1191 285.7049 8.4296)" fill="#A869C5" cx="139.113" cy="130.956" rx="1.65" ry="0.178"/>
			</g>
			<g>
				
					<ellipse transform="matrix(0.7995 0.6006 -0.6006 0.7995 114.1775 -57.8797)" fill="#A869C5" cx="143.793" cy="142.1" rx="0.983" ry="0.178"/>
			</g>
			<g>
				
					<ellipse transform="matrix(0.2269 -0.9739 0.9739 0.2269 -12.1581 266.3724)" fill="#A869C5" cx="161.697" cy="140.844" rx="1.877" ry="0.179"/>
			</g>
			<g>
				<path fill="#A869C5" d="M162.54,130.106c-0.046,0.084-0.578-0.146-1.005-0.694c-0.433-0.545-0.531-1.117-0.439-1.141
					c0.098-0.033,0.331,0.432,0.719,0.92C162.197,129.684,162.593,130.021,162.54,130.106z"/>
			</g>
			<g>
				
					<ellipse transform="matrix(0.5266 -0.8501 0.8501 0.5266 -34.7211 204.8081)" fill="#A869C5" cx="166.538" cy="133.58" rx="1.619" ry="0.177"/>
			</g>
			<g>
				<path fill="#A869C5" d="M171.152,136.659c-0.101-0.006-0.124-0.92-0.059-2.043c0.066-1.123,0.202-2.027,0.302-2.021
					c0.096,0.005,0.121,0.92,0.056,2.043C171.383,135.759,171.248,136.665,171.152,136.659z"/>
			</g>
			<g>
				
					<ellipse transform="matrix(0.6321 0.7749 -0.7749 0.6321 158.3113 -83.2599)" fill="#A869C5" cx="166.834" cy="125.083" rx="2.284" ry="0.178"/>
			</g>
			<g>
				
					<ellipse transform="matrix(-0.1616 0.9869 -0.9869 -0.1616 277.9222 41.5123)" fill="#A869C5" cx="121.327" cy="138.817" rx="2.457" ry="0.178"/>
			</g>
			<g>
				<path fill="#A869C5" d="M117.178,132.985c0.008,0.102-0.825,0.241-1.825,0.499c-1.001,0.253-1.798,0.531-1.84,0.438
					c-0.041-0.084,0.716-0.521,1.752-0.784C116.3,132.872,117.173,132.89,117.178,132.985z"/>
			</g>
			<g>
				
					<ellipse transform="matrix(0.7073 0.707 -0.707 0.7073 126.3615 -48.0856)" fill="#A869C5" cx="121.242" cy="128.534" rx="1.669" ry="0.178"/>
			</g>
			<g>
				<path fill="#A869C5" d="M126.749,139.414c-0.09,0.027-0.411-0.863-0.445-2.02c-0.041-1.156,0.222-2.065,0.314-2.044
					c0.102,0.019,0.002,0.922,0.042,2.033C126.691,138.493,126.849,139.389,126.749,139.414z"/>
			</g>
			<g>
				
					<ellipse transform="matrix(-0.3935 0.9193 -0.9193 -0.3935 308.9892 98.1453)" fill="#A869C5" cx="122.119" cy="150.999" rx="1.936" ry="0.178"/>
			</g>
			<g>
				<path fill="#A869C5" d="M116.523,147.018c-0.09-0.025,0.078-0.791,0.608-1.582c0.526-0.794,1.167-1.244,1.228-1.171
					c0.068,0.078-0.435,0.619-0.931,1.369C116.927,146.379,116.621,147.052,116.523,147.018z"/>
			</g>
			<g>
				
					<ellipse transform="matrix(-0.4003 0.9164 -0.9164 -0.4003 286.9653 99.1723)" fill="#A869C5" cx="111.032" cy="143.485" rx="2.29" ry="0.178"/>
			</g>
			<g>
				
					<ellipse transform="matrix(-0.1306 0.9914 -0.9914 -0.1306 260.8462 55.0763)" fill="#A869C5" cx="106.276" cy="141.903" rx="2.114" ry="0.178"/>
			</g>
			<g>
				
					<ellipse transform="matrix(0.5068 0.8621 -0.8621 0.5068 182.5883 -12.4865)" fill="#A869C5" cx="102.207" cy="153.327" rx="1.821" ry="0.179"/>
			</g>
			<g>
				
					<ellipse transform="matrix(0.2804 0.9599 -0.9599 0.2804 221.0603 4.3977)" fill="#A869C5" cx="107.597" cy="149.643" rx="1.909" ry="0.179"/>
			</g>
			<g>
				<path fill="#A869C5" d="M114.695,155.424c0.039,0.096-0.917,0.568-2.033,1.244c-1.12,0.674-1.981,1.301-2.047,1.221
					c-0.062-0.07,0.716-0.834,1.863-1.523C113.622,155.671,114.661,155.336,114.695,155.424z"/>
			</g>
			<g>
				<path fill="#A869C5" d="M116.269,165.51c-0.081-0.064,0.476-0.892,1.044-1.971c0.574-1.075,0.945-2.001,1.043-1.969
					c0.091,0.023-0.137,1.025-0.728,2.136C117.042,164.817,116.34,165.569,116.269,165.51z"/>
			</g>
			<g>
				<path fill="#A869C5" d="M111.523,166.943c-0.099-0.004-0.117-1.095-0.04-2.434c0.077-1.34,0.219-2.421,0.317-2.417
					c0.098,0.008,0.116,1.097,0.039,2.438C111.763,165.868,111.621,166.949,111.523,166.943z"/>
			</g>
			<g>
				<path fill="#A869C5" d="M106.96,164.309c-0.027,0.086-1.221-0.353-2.292-1.456c-1.08-1.095-1.494-2.296-1.408-2.321
					c0.097-0.048,0.635,1.035,1.663,2.072C105.939,163.652,107.01,164.213,106.96,164.309z"/>
			</g>
			<g>
				
					<ellipse transform="matrix(-0.189 0.982 -0.982 -0.189 276.6322 94.2885)" fill="#A869C5" cx="99.38" cy="161.379" rx="2.07" ry="0.177"/>
			</g>
			<g>
				<path fill="#A869C5" d="M111.804,172.584c0.054,0.083-0.552,0.552-1.229,1.196c-0.681,0.64-1.18,1.221-1.264,1.161
					c-0.079-0.053,0.308-0.75,1.018-1.421C111.036,172.849,111.756,172.5,111.804,172.584z"/>
			</g>
			<g>
				
					<ellipse transform="matrix(0.0145 0.9999 -0.9999 0.0145 274.5322 68.5944)" fill="#A869C5" cx="102.469" cy="173.565" rx="2.294" ry="0.179"/>
			</g>
			<g>
				<path fill="#A869C5" d="M98.164,178.499c-0.022,0.092-1.017-0.076-2.161-0.547c-1.147-0.471-1.973-1.049-1.924-1.129
					c0.051-0.087,0.938,0.342,2.06,0.798C97.256,178.084,98.19,178.401,98.164,178.499z"/>
			</g>
			<g>
				
					<ellipse transform="matrix(0.1348 0.9909 -0.9909 0.1348 250.6538 52.2088)" fill="#A869C5" cx="95.432" cy="169.63" rx="2.049" ry="0.178"/>
			</g>
			<g>
				<path fill="#A869C5" d="M103.54,182.915c0.018,0.1-0.789,0.327-1.802,0.51c-1.013,0.186-1.849,0.256-1.866,0.16
					c-0.018-0.096,0.789-0.325,1.802-0.511C102.688,182.891,103.522,182.819,103.54,182.915z"/>
			</g>
			<g>
				
					<ellipse transform="matrix(0.0999 0.995 -0.995 0.0999 265.1224 74.8844)" fill="#A869C5" cx="91.17" cy="183.986" rx="1.976" ry="0.178"/>
			</g>
			<g>
				
					<ellipse transform="matrix(0.2173 0.9761 -0.9761 0.2173 254.3982 64.7472)" fill="#A869C5" cx="86.826" cy="191.002" rx="2.082" ry="0.179"/>
			</g>
			<g>
				
					<ellipse transform="matrix(0.8868 -0.4621 0.4621 0.8868 -81.1423 63.4867)" fill="#A869C5" cx="89.055" cy="197.418" rx="1.847" ry="0.179"/>
			</g>
			<g>
				<path fill="#A869C5" d="M94.981,195.033c-0.07,0.06-0.811-0.715-1.42-1.875c-0.614-1.157-0.835-2.206-0.745-2.229
					c0.099-0.03,0.464,0.941,1.061,2.062C94.467,194.117,95.063,194.969,94.981,195.033z"/>
			</g>
			<g>
				
					<ellipse transform="matrix(0.3839 0.9234 -0.9234 0.3839 238.0929 25.2244)" fill="#A869C5" cx="100.145" cy="191.025" rx="1.619" ry="0.179"/>
			</g>
			<g>
				
					<ellipse transform="matrix(0.7474 -0.6643 0.6643 0.7474 -108.7469 114.4392)" fill="#A869C5" cx="96.137" cy="200.244" rx="2.367" ry="0.177"/>
			</g>
			<g>
				<path fill="#A869C5" d="M106.211,201.381c-0.066,0.068-1.013-0.777-1.916-2.048c-0.906-1.269-1.397-2.439-1.311-2.479
					c0.092-0.046,0.713,1.031,1.603,2.271C105.469,200.37,106.285,201.31,106.211,201.381z"/>
			</g>
			<g>
				
					<ellipse transform="matrix(0.9975 -0.0709 0.0709 0.9975 -14.2463 7.7578)" fill="#A869C5" cx="102.233" cy="204.701" rx="1.84" ry="0.179"/>
			</g>
			<g>
				
					<ellipse transform="matrix(0.2894 0.9572 -0.9572 0.2894 257.6633 30.0775)" fill="#A869C5" cx="108.574" cy="188.581" rx="3.007" ry="0.179"/>
			</g>
			<g>
				
					<ellipse transform="matrix(0.9905 -0.1378 0.1378 0.9905 -24.903 17.7071)" fill="#A869C5" cx="115.415" cy="188.683" rx="2.317" ry="0.177"/>
			</g>
			<g>
				<path fill="#A869C5" d="M113.377,196.966c0.019,0.102-0.661,0.297-1.442,0.656c-0.784,0.353-1.378,0.735-1.442,0.655
					c-0.062-0.071,0.464-0.605,1.294-0.98C112.616,196.918,113.364,196.874,113.377,196.966z"/>
			</g>
			<g>
				
					<ellipse transform="matrix(0.6983 0.7158 -0.7158 0.6983 179.9276 -21.2728)" fill="#A869C5" cx="115.2" cy="202.812" rx="2.456" ry="0.178"/>
			</g>
			<g>
				<path fill="#A869C5" d="M120.98,198.277c-0.099-0.023,0.044-0.953,0.149-2.102c0.11-1.148,0.143-2.088,0.244-2.095
					c0.095-0.006,0.223,0.952,0.111,2.127C121.376,197.387,121.072,198.302,120.98,198.277z"/>
			</g>
			<g>
				
					<ellipse transform="matrix(0.9165 -0.4 0.4 0.9165 -71.1894 66.6751)" fill="#A869C5" cx="124.147" cy="203.895" rx="2.435" ry="0.179"/>
			</g>
			<g>
				
					<ellipse transform="matrix(0.4852 0.8744 -0.8744 0.4852 233.0611 -13.7526)" fill="#A869C5" cx="128.21" cy="191.056" rx="2.701" ry="0.179"/>
			</g>
			<g>
				<path fill="#A869C5" d="M131.729,197.247c-0.01,0.102-0.996,0.065-2.194,0.191c-1.2,0.117-2.158,0.351-2.189,0.251
					c-0.032-0.088,0.911-0.484,2.153-0.606C130.74,196.955,131.743,197.153,131.729,197.247z"/>
			</g>
			<g>
				<path fill="#A869C5" d="M139.465,195.131c-0.093,0.048-0.663-0.926-1.529-2.001c-0.859-1.081-1.684-1.853-1.617-1.933
					c0.056-0.073,1.008,0.595,1.896,1.71C139.106,194.016,139.55,195.093,139.465,195.131z"/>
			</g>
			<g>
				
					<ellipse transform="matrix(0.9371 -0.3491 0.3491 0.9371 -62.046 60.1719)" fill="#A869C5" cx="135.94" cy="202.25" rx="1.826" ry="0.178"/>
			</g>
			<g>
				
					<ellipse transform="matrix(0.1393 0.9903 -0.9903 0.1393 330.1198 26.7128)" fill="#A869C5" cx="149.693" cy="203.258" rx="1.984" ry="0.178"/>
			</g>
			<g>
				<path fill="#A869C5" d="M151.667,197.492c-0.098-0.014-0.029-1.054,0.152-2.319c0.183-1.267,0.408-2.282,0.506-2.271
					c0.097,0.017,0.029,1.054-0.152,2.322C151.991,196.491,151.764,197.506,151.667,197.492z"/>
			</g>
			<g>
				
					<ellipse transform="matrix(0.3844 -0.9232 0.9232 0.3844 -99.564 255.9124)" fill="#A869C5" cx="142.095" cy="202.607" rx="3.408" ry="0.179"/>
			</g>
			<g>
				<path fill="#A869C5" d="M121.355,176.126c-0.098,0.012-0.325-1.033-0.508-2.336c-0.184-1.302-0.252-2.371-0.155-2.383
					c0.097-0.017,0.325,1.028,0.507,2.333C121.383,175.043,121.453,176.109,121.355,176.126z"/>
			</g>
			<g>
				<path fill="#A869C5" d="M122.025,184.119c-0.085,0.044-0.429-0.526-0.539-1.328c-0.115-0.798,0.06-1.442,0.152-1.424
					c0.102,0.012,0.093,0.632,0.201,1.376C121.94,183.485,122.118,184.079,122.025,184.119z"/>
			</g>
			<g>
				
					<ellipse transform="matrix(0.2335 0.9724 -0.9724 0.2335 301.4563 43.3886)" fill="#A869C5" cx="123.209" cy="212.894" rx="1.685" ry="0.178"/>
			</g>
			<g>
				
					<ellipse transform="matrix(0.9515 0.3077 -0.3077 0.9515 71.6757 -29.9086)" fill="#A869C5" cx="130.687" cy="212.352" rx="2.342" ry="0.179"/>
			</g>
			<g>
				
					<ellipse transform="matrix(0.7773 -0.6292 0.6292 0.7773 -102.7063 135.1548)" fill="#A869C5" cx="139.53" cy="212.633" rx="1.771" ry="0.179"/>
			</g>
			<g>
				<path fill="#A869C5" d="M148.776,213.348c-0.052,0.09-0.86-0.303-1.9-0.656c-1.038-0.358-1.918-0.544-1.905-0.646
					c0.009-0.094,0.941-0.063,2.02,0.31C148.071,212.722,148.827,213.27,148.776,213.348z"/>
			</g>
			<g>
				<path fill="#A869C5" d="M157.949,210.075c0.073,0.071-0.331,0.59-0.754,1.267c-0.429,0.672-0.723,1.26-0.818,1.224
					c-0.092-0.027,0.064-0.703,0.515-1.416C157.342,210.436,157.884,210.007,157.949,210.075z"/>
			</g>
			<g>
				
					<ellipse transform="matrix(0.1495 0.9888 -0.9888 0.1495 321.5511 5.0275)" fill="#A869C5" cx="157.853" cy="189.434" rx="2.188" ry="0.178"/>
			</g>
			<g>
				
					<ellipse transform="matrix(0.8144 0.5803 -0.5803 0.8144 143.3667 -59.2051)" fill="#A869C5" cx="164.245" cy="194.537" rx="1.927" ry="0.177"/>
			</g>
			<g>
				
					<ellipse transform="matrix(-0.3179 0.9481 -0.9481 -0.3179 402.1406 72.9341)" fill="#A869C5" cx="174.836" cy="181.117" rx="2.757" ry="0.18"/>
			</g>
			<g>
				
					<ellipse transform="matrix(0.7817 0.6237 -0.6237 0.7817 149.9416 -64.902)" fill="#A869C5" cx="167.677" cy="181.727" rx="1.965" ry="0.178"/>
			</g>
			<g>
				
					<ellipse transform="matrix(0.4197 -0.9076 0.9076 0.4197 -60.0325 256.7851)" fill="#A869C5" cx="170.814" cy="175.344" rx="1.876" ry="0.178"/>
			</g>
			<g>
				<path fill="#A869C5" d="M162.54,182.152c-0.082,0.053-0.595-0.628-0.997-1.587c-0.409-0.96-0.539-1.799-0.447-1.823
					c0.1-0.023,0.379,0.754,0.774,1.684C162.26,181.359,162.625,182.099,162.54,182.152z"/>
			</g>
			<g>
				<path fill="#A869C5" d="M169.618,164.718c0.082,0.046-0.297,0.806-1.051,1.518c-0.75,0.716-1.528,1.055-1.572,0.972
					c-0.052-0.088,0.615-0.549,1.327-1.229C169.038,165.3,169.532,164.662,169.618,164.718z"/>
			</g>
			<g>
				<path fill="#A869C5" d="M162.013,165.896c-0.08,0.056-0.587-0.545-1.129-1.343c-0.543-0.796-0.918-1.487-0.838-1.541
					c0.084-0.057,0.589,0.544,1.133,1.342C161.722,165.15,162.095,165.841,162.013,165.896z"/>
			</g>
			<g>
				
					<ellipse transform="matrix(0.8542 0.5199 -0.5199 0.8542 106.6378 -64.2285)" fill="#A869C5" cx="167.845" cy="158.032" rx="1.765" ry="0.179"/>
			</g>
			<g>
				<path fill="#A869C5" d="M174.382,165.376c-0.096-0.009-0.104-1.245-0.014-2.767s0.241-2.75,0.341-2.746
					c0.098,0.008,0.104,1.244,0.016,2.768C174.633,164.151,174.482,165.38,174.382,165.376z"/>
			</g>
			<g>
				
					<ellipse transform="matrix(-0.3522 0.9359 -0.9359 -0.3522 411.0447 98.7579)" fill="#A869C5" cx="171.343" cy="191.639" rx="2.447" ry="0.178"/>
			</g>
			<g>
				
					<ellipse transform="matrix(-0.2365 0.9716 -0.9716 -0.2365 407.1786 65.071)" fill="#A869C5" cx="178.023" cy="192.513" rx="2.29" ry="0.179"/>
			</g>
			<g>
				<path fill="#A869C5" d="M166.87,213.087c-0.07,0.062-0.681-0.595-1.027-1.622c-0.357-1.025-0.279-1.917-0.188-1.912
					c0.104-0.002,0.188,0.833,0.524,1.797C166.504,212.314,166.956,213.026,166.87,213.087z"/>
			</g>
			<g>
				<path fill="#A869C5" d="M187.677,157.772c-0.094,0.017-0.329-1.045-0.279-2.375c0.046-1.33,0.355-2.371,0.447-2.348
					c0.1,0.021-0.048,1.067-0.09,2.361C187.706,156.704,187.777,157.759,187.677,157.772z"/>
			</g>
			<g>
				
					<ellipse transform="matrix(0.9659 0.259 -0.259 0.9659 45.7215 -41.8767)" fill="#A869C5" cx="181.807" cy="152.601" rx="1.765" ry="0.178"/>
			</g>
			<g>
				
					<ellipse transform="matrix(-0.0165 0.9999 -0.9999 -0.0165 331.5961 -37.6543)" fill="#A869C5" cx="184.318" cy="144.264" rx="2.492" ry="0.179"/>
			</g>
			<g>
				
					<ellipse transform="matrix(0.9964 0.0842 -0.0842 0.9964 12.7164 -14.5476)" fill="#A869C5" cx="178.79" cy="143.453" rx="1.965" ry="0.179"/>
			</g>
			<g>
				
					<ellipse transform="matrix(0.074 0.9973 -0.9973 0.074 299.3676 -52.1039)" fill="#A869C5" cx="177.741" cy="135.154" rx="1.774" ry="0.178"/>
			</g>
			<g>
				
					<ellipse transform="matrix(0.6043 0.7967 -0.7967 0.6043 205.0228 -78.851)" fill="#A869C5" cx="181.898" cy="166.991" rx="2.058" ry="0.177"/>
			</g>
			<g>
				
					<ellipse transform="matrix(-0.0835 0.9965 -0.9965 -0.0835 372.9937 -0.1236)" fill="#A869C5" cx="186.554" cy="171.465" rx="2.041" ry="0.177"/>
			</g>
			<g>
				
					<ellipse transform="matrix(0.9928 -0.1201 0.1201 0.9928 -19.8635 24.1315)" fill="#A869C5" cx="190.267" cy="176.856" rx="1.651" ry="0.178"/>
			</g>
			<g>
				
					<ellipse transform="matrix(0.3151 -0.9491 0.9491 0.3151 -40.0044 308.8615)" fill="#A869C5" cx="193.986" cy="182.147" rx="1.658" ry="0.179"/>
			</g>
			<g>
				<path fill="#A869C5" d="M198.724,186.48c0.082,0.064-0.259,0.603-0.4,1.353c-0.151,0.746-0.04,1.376-0.14,1.402
					c-0.088,0.037-0.379-0.629-0.209-1.473C198.136,186.92,198.659,186.413,198.724,186.48z"/>
			</g>
			<g>
				<path fill="#A869C5" d="M200.294,176.775c-0.011,0.104-0.981,0.068-2.164,0.18c-1.185,0.104-2.132,0.315-2.162,0.216
					c-0.03-0.088,0.903-0.461,2.128-0.57C199.321,176.486,200.308,176.684,200.294,176.775z"/>
			</g>
			<g>
				<path fill="#A869C5" d="M204.897,175.072c0.098,0.032-0.123,0.978-0.243,2.158c-0.128,1.183-0.104,2.154-0.207,2.162
					c-0.092,0.012-0.277-0.976-0.147-2.198C204.422,175.97,204.807,175.041,204.897,175.072z"/>
			</g>
			<g>
				<path fill="#A869C5" d="M193.829,167.334c-0.096-0.008-0.064-1.221,0.075-2.704c0.142-1.486,0.335-2.681,0.433-2.673
					c0.098,0.01,0.064,1.221-0.077,2.705C194.12,166.147,193.928,167.342,193.829,167.334z"/>
			</g>
			<g>
				
					<ellipse transform="matrix(0.9814 0.1921 -0.1921 0.9814 34.675 -33.3854)" fill="#A869C5" cx="189.467" cy="162.086" rx="1.799" ry="0.178"/>
			</g>
			<g>
				<path fill="#A869C5" d="M193.485,155.145c-0.088,0.029-0.479-0.966-0.559-2.27c-0.087-1.303,0.172-2.34,0.264-2.321
					c0.102,0.017,0.008,1.042,0.092,2.299C193.36,154.109,193.584,155.116,193.485,155.145z"/>
			</g>
			<g>
				
					<ellipse transform="matrix(0.9921 0.1252 -0.1252 0.9921 19.9915 -22.53)" fill="#A869C5" cx="189.281" cy="147.82" rx="1.057" ry="0.178"/>
			</g>
			<g>
				<path fill="#A869C5" d="M199.77,161.176c-0.019,0.094-0.767-0.009-1.561-0.465c-0.795-0.453-1.262-1.043-1.192-1.107
					c0.072-0.073,0.62,0.375,1.37,0.798C199.131,160.832,199.795,161.075,199.77,161.176z"/>
			</g>
			<g>
				
					<ellipse transform="matrix(0.8876 -0.4606 0.4606 0.8876 -55.3954 111.8578)" fill="#A869C5" cx="201.511" cy="169.44" rx="1.905" ry="0.178"/>
			</g>
			<polygon fill="#F9FAFD" points="137.743,118.516 138.262,112.715 149.805,121.729 152.689,126.387 157.853,114.342 
				159.117,116.018 159.117,123.314 153.537,130.106 143.007,129.188 			"/>
			<g>
				<path fill="#C7CDDD" d="M149.318,122.443c0.02,0.002,0.016,0.25-0.009,0.707c-0.035,0.516-0.08,1.168-0.133,1.957
					c-0.146,1.736-0.341,4.067-0.567,6.755l-0.035,0.414l-0.264-0.32c-0.799-0.968-1.666-2.017-2.564-3.104
					c-2.364-2.875-4.488-5.49-6.011-7.394c-0.725-0.917-1.328-1.679-1.789-2.265c-0.417-0.539-0.637-0.845-0.618-0.86
					c0.019-0.016,0.277,0.261,0.727,0.774c0.485,0.566,1.116,1.305,1.877,2.194c1.573,1.862,3.727,4.45,6.089,7.321
					c0.894,1.091,1.754,2.142,2.549,3.113l-0.298,0.095c0.275-2.683,0.515-5.009,0.693-6.743c0.094-0.785,0.17-1.435,0.231-1.947
					C149.257,122.687,149.298,122.441,149.318,122.443z"/>
			</g>
			<g>
				<path fill="#C7CDDD" d="M158.969,123.002c0.04,0.005,0.017,0.436-0.058,1.166c-0.074,0.729-0.195,1.757-0.353,2.957
					l-0.096,0.749l-0.229-0.724c-0.2-0.631-0.401-1.327-0.587-2.062c-0.429-1.686-0.691-3.242-0.827-4.373
					c-0.138-1.131-0.156-1.836-0.112-1.841c0.052-0.006,0.16,0.689,0.363,1.804c0.197,1.115,0.499,2.65,0.922,4.322
					c0.183,0.728,0.377,1.421,0.562,2.051l-0.326,0.026c0.181-1.196,0.347-2.218,0.479-2.939
					C158.837,123.417,158.934,122.996,158.969,123.002z"/>
			</g>
			<g>
				<path fill="#C7CDDD" d="M158.215,162.462c-0.012,0.002-0.04-0.124-0.088-0.365c-0.05-0.279-0.111-0.63-0.188-1.055
					c-0.153-0.972-0.362-2.288-0.618-3.894c-0.496-3.339-1.168-7.864-1.91-12.864c-0.746-5-1.418-9.525-1.915-12.863
					c-0.245-1.607-0.445-2.926-0.593-3.896c-0.062-0.428-0.111-0.779-0.152-1.061c-0.03-0.243-0.04-0.372-0.028-0.375
					c0.012-0.002,0.046,0.123,0.1,0.362c0.058,0.279,0.13,0.626,0.218,1.05c0.179,0.914,0.425,2.239,0.703,3.879
					c0.569,3.282,1.281,7.825,2.019,12.852c0.738,5.025,1.368,9.579,1.81,12.878c0.209,1.614,0.381,2.937,0.506,3.911
					c0.05,0.429,0.09,0.782,0.122,1.065C158.223,162.332,158.23,162.46,158.215,162.462z"/>
			</g>
			<g>
				<path fill="#C7CDDD" d="M147.704,127.897c0.06,0.081-0.069,0.278-0.196,0.514c-0.131,0.234-0.228,0.45-0.328,0.442
					c-0.097-0.003-0.154-0.302,0.016-0.613C147.365,127.93,147.649,127.817,147.704,127.897z"/>
			</g>
			<g>
				
					<ellipse transform="matrix(-0.0322 0.9995 -0.9995 -0.0322 286.8077 -30.8366)" fill="#C7CDDD" cx="158.334" cy="123.445" rx="0.592" ry="0.178"/>
			</g>
			<g>
				<path fill="#C7CDDD" d="M156.744,119.27c0.088,0.029-0.467,1.76-1.6,3.681c-1.123,1.928-2.362,3.256-2.429,3.194
					c-0.083-0.067,1.017-1.478,2.122-3.375C155.952,120.879,156.648,119.23,156.744,119.27z"/>
			</g>
			<g>
				<path fill="#C7CDDD" d="M152.937,126.588c-0.066,0.071-0.991-0.692-2.008-1.76c-1.021-1.066-1.739-2.025-1.666-2.088
					c0.076-0.066,0.911,0.783,1.922,1.842C152.198,125.642,153.006,126.515,152.937,126.588z"/>
			</g>
			<g>
				<path fill="#C7CDDD" d="M155.958,137.146c-0.083,0.067-0.287-0.154-0.327-0.438c-0.039-0.276-0.031-0.454,0.046-0.509
					c0.09-0.062,0.271,0.173,0.306,0.444C156.022,136.905,156.034,137.084,155.958,137.146z"/>
			</g>
			<g>
				<path fill="#C7CDDD" d="M157.007,144.043c-0.1-0.003-0.174-0.208-0.204-0.456c-0.033-0.262,0.028-0.49,0.126-0.496
					s0.193,0.192,0.228,0.455C157.191,143.822,157.103,144.046,157.007,144.043z"/>
			</g>
			<g>
				<path fill="#E08F8D" d="M153.79,93.024c0.032-0.021,0.114,0.259,0.517,0.478c0.377,0.217,1.146,0.299,1.72-0.287
					c0.283-0.277,0.511-0.672,0.626-1.129c0.12-0.459,0.136-0.979,0.107-1.528c-0.075-1.123-0.155-2.341-0.241-3.621
					c-0.165-2.573-0.293-4.903-0.369-6.59c-0.035-0.844-0.062-1.528-0.069-2c-0.01-0.473-0.002-0.734,0.021-0.736
					c0.024-0.002,0.064,0.257,0.116,0.728c0.052,0.469,0.115,1.149,0.184,1.992c0.14,1.683,0.309,4.011,0.475,6.583
					c0.073,1.283,0.147,2.504,0.211,3.63c0.021,0.564-0.004,1.119-0.149,1.62c-0.142,0.501-0.404,0.933-0.737,1.235
					c-0.332,0.302-0.74,0.462-1.1,0.462c-0.358,0.005-0.658-0.104-0.865-0.239C153.812,93.336,153.776,93.017,153.79,93.024z"/>
			</g>
			<g>
				<path fill="#E08F8D" d="M155.707,97.587c0.021,0.031-0.419,0.334-1.244,0.489c-0.813,0.158-2.047,0.102-3.176-0.556
					c-1.127-0.661-1.783-1.708-2.043-2.493c-0.271-0.796-0.221-1.325-0.186-1.323c0.061-0.008,0.105,0.5,0.421,1.232
					c0.306,0.723,0.95,1.668,1.987,2.276c1.04,0.605,2.18,0.702,2.96,0.613C155.218,97.743,155.683,97.531,155.707,97.587z"/>
			</g>
			<g>
				<path fill="#E08F8D" d="M149.858,93.417c-0.029,0.095-0.608-0.026-1.196,0.32c-0.599,0.323-0.794,0.881-0.89,0.857
					c-0.043-0.009-0.063-0.175,0.035-0.421c0.094-0.244,0.328-0.547,0.681-0.748c0.353-0.198,0.734-0.242,0.991-0.196
					C149.739,93.273,149.873,93.375,149.858,93.417z"/>
			</g>
			<g>
				<path fill="#E08F8D" d="M158.567,108.891c0.012,0.018-0.235,0.184-0.71,0.437c-0.471,0.253-1.181,0.579-2.093,0.889
					c-1.809,0.627-4.503,1.108-7.433,0.694c-2.931-0.412-5.388-1.619-6.954-2.72c-0.79-0.551-1.381-1.058-1.765-1.432
					c-0.385-0.374-0.577-0.601-0.562-0.616c0.046-0.051,0.874,0.806,2.467,1.838c1.579,1.033,3.998,2.175,6.863,2.578
					c2.864,0.404,5.504-0.025,7.308-0.581C157.505,109.424,158.537,108.829,158.567,108.891z"/>
			</g>
			<g>
				<path fill="#E08F8D" d="M131.702,93.226c-0.039-0.048,0.482-0.255,0.73-0.995c0.12-0.356,0.149-0.831-0.033-1.286
					c-0.161-0.454-0.629-0.844-1.16-0.768c-0.485,0.042-0.752,0.638-0.552,0.97l-0.306,0.114c-0.275-1.634-0.424-2.795-0.35-2.808
					c0.075-0.014,0.35,1.124,0.676,2.748l0.182,0.912l-0.488-0.798c-0.342-0.558,0.066-1.408,0.787-1.491
					c0.361-0.05,0.71,0.06,0.979,0.254c0.267,0.201,0.44,0.476,0.54,0.749c0.199,0.552,0.128,1.1-0.039,1.492
					c-0.167,0.397-0.424,0.655-0.625,0.779C131.841,93.225,131.708,93.245,131.702,93.226z"/>
			</g>
			<g>
				
					<ellipse transform="matrix(0.0078 1 -1 0.0078 228.3567 -67.0131)" fill="#452775" cx="147.949" cy="81.571" rx="1.743" ry="0.356"/>
			</g>
			<g>
				
					<ellipse transform="matrix(0.0234 0.9997 -0.9997 0.0234 240.0767 -83.5139)" fill="#452775" cx="162.785" cy="81.125" rx="1.46" ry="0.357"/>
			</g>
			<path fill="#552E3B" d="M134.23,85.199c-0.393,1.182-0.783,2.491-0.296,3.638c0.486,1.146,2.295,1.701,2.971,0.655
				c0.264-0.409,0.277-0.927,0.281-1.413c0.028-3.346,0.056-6.692,0.083-10.038c4.821-0.857,8.978-4.699,10.212-9.437
				c2.55,1.559,5.921,1.671,8.57,0.286c1.092-0.571,2.188-1.404,3.411-1.24c1.466,0.199,2.329,1.711,3.536,2.57
				c2.094,1.492,5.465,0.567,6.504-1.785c1.074-2.433-0.381-5.423-2.657-6.801c-2.865-1.736-6.478-1.399-9.805-1.006
				c-6.145,0.726-12.29,1.452-18.435,2.179c-1.177,0.139-2.421,0.305-3.349,1.042c-0.956,0.759-1.396,1.98-1.744,3.149
				c-1.375,4.613-2.01,9.447-1.874,14.26c0.042,1.477,0.3,3.194,1.587,3.921"/>
			<g>
				
					<ellipse transform="matrix(0.982 -0.1891 0.1891 0.982 -11.8723 29.2749)" fill="#552E3B" cx="147.48" cy="76.855" rx="2.558" ry="0.892"/>
			</g>
			<g>
				
					<ellipse transform="matrix(0.9974 0.0727 -0.0727 0.9974 5.9578 -11.624)" fill="#552E3B" cx="162.627" cy="76.015" rx="1.988" ry="0.892"/>
			</g>
			<g opacity="0.26">
				<circle fill="#DEECFC" cx="148.359" cy="81.125" r="6.629"/>
			</g>
			<g opacity="0.26">
				<circle fill="#DEECFC" cx="164.61" cy="80.514" r="6.629"/>
			</g>
			<g>
				<ellipse fill="#635252" cx="156.261" cy="81.765" rx="1.563" ry="0.178"/>
			</g>
			<g>
				<path fill="#E08F8D" d="M180.917,215.223c-0.036,0.027-0.587-0.614-1.412-1.703c-0.826-1.089-1.923-2.631-3.054-4.384
					c-1.131-1.755-2.078-3.391-2.727-4.594c-0.65-1.204-1.009-1.97-0.969-1.992c0.046-0.023,0.482,0.698,1.187,1.867
					c0.704,1.168,1.684,2.776,2.808,4.525c1.127,1.747,2.187,3.305,2.958,4.428C180.481,214.494,180.96,215.192,180.917,215.223z"/>
			</g>
			<g>
				<path fill="#E08F8D" d="M179.803,215.139c-0.002,0.021-0.188,0.014-0.517-0.052c-0.327-0.072-0.796-0.226-1.326-0.509
					c-1.081-0.555-2.308-1.713-3.446-3.115c-1.148-1.394-2.17-2.668-2.896-3.604c-0.725-0.934-1.153-1.528-1.117-1.56
					c0.04-0.03,0.538,0.506,1.313,1.399c0.775,0.892,1.826,2.145,2.972,3.536c1.137,1.393,2.293,2.535,3.299,3.124
					C179.082,214.965,179.821,215.075,179.803,215.139z"/>
			</g>
			<polyline fill="#B8ABD6" points="192.038,219.335 209.923,174.375 269.872,175.47 253.011,218.087 192.038,219.335 			"/>
			<polygon fill="#968ABC" points="212.688,174.425 194.369,219.335 253.011,218.087 269.872,175.47 			"/>
			
				<ellipse transform="matrix(-0.7069 -0.7073 0.7073 -0.7069 260.7316 501.4604)" fill="#D7D1E8" cx="234.268" cy="196.707" rx="3.312" ry="4.083"/>
			
				<ellipse transform="matrix(-0.7071 -0.7071 0.7071 -0.7071 260.9719 501.8071)" opacity="0.19" fill="#D7D1E8" cx="234.414" cy="196.854" rx="5.2" ry="6.411"/>
			<g opacity="0.43">
				<path fill="#EDE6F5" d="M83.075,60.411c9.723-3.83,22.033,1.26,26.209,10.839c4.177,9.578-0.469,22.063-9.891,26.58
					c-9.423,4.519-22.065,0.323-26.918-8.932c-4.853-9.254-1.114-22.039,7.962-27.221"/>
			</g>
		</g>
		<g>
			<g>
				<path fill="#6E3281" d="M228.094,149.546c-0.456-6.062,3.919-9.796,9.632-6.583c2.416,1.359,4.533,1.81,7.183,0.895
					c4.206-1.454,5.504-7.221,2.662-10.417c-0.578-0.649-1.781,0.03-1.481,0.862c0.854,2.372,1.344,4.442-0.509,6.617
					c-2.271,2.667-5.603,0.897-7.931-0.377c-1.969-1.077-4.043-1.109-6.17-0.578c-4.172,1.043-6.241,6.188-4.303,9.829
					C227.401,150.215,228.131,150.037,228.094,149.546L228.094,149.546z"/>
			</g>
		</g>
		<g>
			<g>
				<path fill="#EDC483" d="M238.718,79.744c0.586,1.752,1.604,3.266,2.639,4.786c0.487,0.714,1.41,2.375,2.395,2.604
					c1.204,0.28,1.816-0.196,2.809-0.89c2.046-1.429,4.08-2.875,6.112-4.322c0.415-0.295,0.656-0.855,0.349-1.328
					c-1.687-2.596-3.373-5.191-5.06-7.786c-0.269-0.413-0.881-0.664-1.328-0.348c-2.068,1.464-4.224,2.851-6.176,4.469
					c-0.8,0.663,0.23,1.929,1.091,1.414c2.103-1.26,4.063-2.791,6.065-4.207c-0.443-0.116-0.886-0.232-1.328-0.348
					c1.688,2.595,3.373,5.19,5.06,7.786c0.116-0.442,0.232-0.885,0.349-1.328c-2.289,1.629-4.573,3.263-6.846,4.915
					c-0.92,0.668-4.719-5.016-5.507-5.779C239.084,79.133,238.596,79.378,238.718,79.744L238.718,79.744z"/>
			</g>
		</g>
		<g>
			<g>
				<path fill="#8AA9FC" d="M214.765,104.195c-2.516,2.46-3.156,6.096-0.969,9.003c2.173,2.886,6.572,3.162,9.354,1.126
					c2.77-2.025,3.267-5.912,1.729-8.799c-1.703-3.199-6.003-4.578-9.377-3.893c-0.853,0.173-0.641,1.5,0.202,1.492
					c2.198-0.02,4.154,0.221,6.082,1.351c2.728,1.6,3.024,4.895,1.542,7.437c-1.685,2.891-5.632,2.759-7.945,0.831
					c-2.353-1.959-2.085-5.97-0.092-8.021C215.627,104.377,215.109,103.859,214.765,104.195L214.765,104.195z"/>
			</g>
		</g>
		<g>
			<g>
				<path fill="#E3707F" d="M275.947,127.662c-0.803,4.772-1.525,9.551-2.218,14.34c-0.098,0.679,0.361,1.146,1.043,1.043
					c4.479-0.675,8.956-1.326,13.402-2.197c0.512-0.1,0.705-0.74,0.471-1.156c-2.561-4.557-5.739-9.877-10.263-12.745
					c-0.878-0.557-1.651,0.644-1.048,1.358c3.455,4.092,7.318,7.375,9.951,12.182c0.227-0.395,0.453-0.79,0.68-1.185
					c-4.572,0.565-9.103,1.343-13.645,2.108c0.357,0.272,0.716,0.545,1.073,0.817c0.586-4.804,1.141-9.606,1.616-14.422
					C277.071,127.2,276.048,127.062,275.947,127.662L275.947,127.662z"/>
			</g>
		</g>
		<g>
			<g>
				<path fill="#E8947E" d="M263.724,117.128c0.839-4.714,1.552-9.544,1.896-14.321c0.063-0.888-1.423-1.097-1.562-0.211
					c-0.739,4.74-1.143,9.601-1.385,14.39C262.644,117.583,263.618,117.724,263.724,117.128L263.724,117.128z"/>
			</g>
		</g>
		<g>
			<g>
				<path fill="#E8947E" d="M279.765,97.573c-0.125-0.151-0.273-0.257-0.429-0.375c-0.759-0.581-1.903,0.568-1.327,1.328
					c0.118,0.155,0.225,0.304,0.373,0.43C279.352,99.775,280.565,98.545,279.765,97.573L279.765,97.573z"/>
			</g>
		</g>
	</g>
</g>
<g id="Layer_3" display="none">
	<g display="inline">
		<g>
			<path fill="#EDC483" d="M51.572,35.442c0.658,1.864,1.747,3.483,2.858,5.108c0.511,0.747,1.495,2.522,2.533,2.761
				c1.273,0.293,1.907-0.216,2.958-0.95c2.194-1.533,4.375-3.084,6.557-4.636c0.414-0.295,0.655-0.855,0.348-1.328
				c-1.809-2.783-3.617-5.566-5.425-8.351c-0.269-0.414-0.881-0.664-1.327-0.348c-2.216,1.567-4.516,3.057-6.615,4.778
				c-0.802,0.658,0.232,1.934,1.091,1.414c2.25-1.364,4.355-2.996,6.503-4.516c-0.442-0.116-0.885-0.232-1.327-0.348
				c1.808,2.784,3.616,5.567,5.425,8.351c0.116-0.442,0.232-0.885,0.348-1.328c-2.454,1.747-4.904,3.5-7.344,5.268
				c-1.081,0.784-5.038-5.315-5.959-6.237C51.942,34.827,51.444,35.08,51.572,35.442L51.572,35.442z"/>
		</g>
	</g>
	<g display="inline">
		<g>
			<path fill="#8AA9FC" d="M24.984,64.083c-2.68,2.625-3.346,6.513-1.014,9.609c2.314,3.073,6.999,3.353,9.957,1.188
				c2.943-2.154,3.471-6.292,1.837-9.361c-1.816-3.415-6.399-4.854-9.995-4.149c-0.852,0.167-0.641,1.505,0.202,1.492
				c2.368-0.037,4.479,0.234,6.552,1.454c2.948,1.735,3.277,5.3,1.672,8.053c-1.826,3.132-6.098,2.993-8.606,0.902
				c-2.548-2.124-2.233-6.445-0.077-8.66C25.847,64.266,25.328,63.747,24.984,64.083L24.984,64.083z"/>
		</g>
	</g>
	<g display="inline">
		<g>
			<path fill="#8AA9FC" d="M263.55,33.162c-2.679,2.622-3.351,6.516-1.015,9.61c2.316,3.069,6.999,3.354,9.959,1.187
				c2.942-2.155,3.469-6.292,1.837-9.361c-1.817-3.415-6.4-4.855-9.996-4.15c-0.853,0.167-0.642,1.505,0.202,1.492
				c2.368-0.037,4.479,0.234,6.553,1.455c2.947,1.735,3.276,5.3,1.671,8.053c-1.827,3.133-6.098,2.992-8.607,0.902
				c-2.549-2.123-2.233-6.446-0.076-8.66C264.414,33.344,263.894,32.825,263.55,33.162L263.55,33.162z"/>
		</g>
	</g>
	<g display="inline">
		<g>
			<path fill="#E3707F" d="M74.955,90.529c-0.85,5.121-1.617,10.248-2.357,15.386c-0.098,0.678,0.361,1.145,1.043,1.042
				c4.804-0.725,9.604-1.428,14.375-2.351c0.512-0.099,0.704-0.74,0.471-1.156c-2.752-4.903-6.165-10.513-10.988-13.644
				c-0.869-0.564-1.659,0.649-1.048,1.358c3.751,4.353,7.857,7.934,10.677,13.081c0.227-0.395,0.453-0.79,0.68-1.185
				c-4.896,0.616-9.751,1.446-14.617,2.262c0.357,0.272,0.716,0.545,1.073,0.817c0.634-5.152,1.233-10.303,1.756-15.467
				C76.08,90.067,75.054,89.929,74.955,90.529L74.955,90.529z"/>
		</g>
	</g>
	<g display="inline">
		<g>
			<path fill="#E8947E" d="M87.978,60.02c-5.039,0.685-10.138,1.521-15.087,2.692c-1.018,0.241-0.565,1.687,0.422,1.532
				c5.013-0.783,10.037-1.928,14.948-3.194C88.95,60.873,88.637,59.93,87.978,60.02L87.978,60.02z"/>
		</g>
	</g>
</g>
<g id="Layer_2">
	<g>
		<g>
			<path fill="#EDE6F5" d="M182.386,248.286c31.23-11.986,55.83-34.803,67.782-68.107c6.81-18.976,13.796-39.169,8.166-58.529
				c-7.458-25.645-34.071-43.905-60.761-42.918s-51.385,20.288-60.063,45.547c-5.568,16.209-7.623,37.407-23.702,43.339
				c-13.115,4.839-27.467-4.39-41.36-2.846c-17.002,1.889-28.606,20.792-26.408,37.755c2.198,16.964,15.146,31.005,30.25,39.034
				c9.338,4.963,19.467,8.01,29.825,10.3c15.129,3.347,30.718,4.312,46.093,2.394C161.43,253.101,174.506,251.31,182.386,248.286z"
				/>
		</g>
		<path fill="#968ABC" d="M94.653,126.624l2.352,105.778l145.58-4.595l1.889-122.213c0.081-5.29-4.594-9.394-9.829-8.628
			l-131.136,19.179C98.335,116.903,94.538,121.396,94.653,126.624z"/>
		<path fill="#EDE6F5" d="M101.133,123.504l3.1,102.296l129.628-5.073c0,0,0.845-115.539,1.688-115.539
			C236.395,105.188,101.133,123.504,101.133,123.504z"/>
		<polygon opacity="0.57" fill="#FFFFFF" points="101.386,131.889 235.553,113.503 235.549,105.188 101.133,123.504 		"/>
		<polygon fill="#EDE6F5" points="72.387,77.773 69.515,102.318 79.96,101.272 91.709,103.623 88.837,77.773 		"/>
		<polygon fill="#EDE6F5" points="85.796,76.078 86.462,69.105 102.912,69.105 105.786,94.955 92.513,92.302 90.64,76.411 		"/>
		<g>
			<path fill="#EDE6F5" d="M76.183,78.308c-0.088-1.748,0.72-5.107,4.404-5.303c1.242-0.046,2.262,0.283,3.025,1.04
				c1.54,1.525,1.442,4.148,1.436,4.259l-0.961-0.041c0-0.023,0.082-2.315-1.155-3.537c-0.563-0.554-1.336-0.818-2.293-0.758
				c-3.656,0.193-3.502,4.124-3.492,4.291L76.183,78.308z"/>
		</g>
		<g>
			<path fill="#EDE6F5" d="M90.221,69.37c-0.087-1.749,0.718-5.11,4.404-5.306c1.239-0.058,2.262,0.284,3.026,1.043
				c1.54,1.525,1.442,4.148,1.436,4.259l-0.961-0.041c0-0.023,0.08-2.315-1.157-3.537c-0.561-0.557-1.327-0.823-2.294-0.76
				c-3.64,0.191-3.498,4.127-3.492,4.295L90.221,69.37z"/>
		</g>
		<g>
			<g>
				<path fill="#6E3281" d="M177.775,97.517c-0.588-6.569,4.268-10.575,10.404-7.125c2.574,1.447,4.822,1.925,7.645,0.949
					c4.481-1.55,5.784-7.636,2.829-11.051c-0.567-0.656-1.79,0.036-1.48,0.862c0.961,2.561,1.446,4.819-0.554,7.168
					c-2.46,2.889-6.071,0.989-8.598-0.395c-2.093-1.147-4.297-1.18-6.561-0.617c-4.452,1.109-6.602,6.565-4.603,10.457
					C177.075,98.188,177.819,98.006,177.775,97.517L177.775,97.517z"/>
			</g>
		</g>
		<g>
			<g>
				<path fill="#EDC483" d="M199.319,15.942c0.658,1.864,1.747,3.483,2.858,5.108c0.511,0.747,1.495,2.522,2.533,2.761
					c1.273,0.293,1.907-0.216,2.958-0.95c2.194-1.533,4.375-3.084,6.557-4.636c0.414-0.295,0.655-0.855,0.348-1.328
					c-1.809-2.783-3.617-5.566-5.425-8.351c-0.269-0.414-0.881-0.664-1.327-0.348c-2.216,1.567-4.516,3.057-6.615,4.778
					c-0.802,0.658,0.232,1.934,1.091,1.414c2.25-1.364,4.355-2.996,6.503-4.516c-0.442-0.116-0.885-0.232-1.327-0.348
					c1.808,2.784,3.616,5.567,5.425,8.351c0.116-0.442,0.232-0.885,0.348-1.328c-2.454,1.747-4.904,3.5-7.344,5.268
					c-1.081,0.784-5.038-5.315-5.959-6.237C199.689,15.327,199.191,15.58,199.319,15.942L199.319,15.942z"/>
			</g>
		</g>
		<g>
			<g>
				<path fill="#8AA9FC" d="M172.731,44.583c-2.681,2.625-3.346,6.513-1.014,9.609c2.314,3.073,6.999,3.353,9.957,1.188
					c2.943-2.154,3.471-6.292,1.837-9.361c-1.816-3.415-6.399-4.854-9.995-4.149c-0.853,0.167-0.642,1.505,0.202,1.492
					c2.368-0.037,4.479,0.234,6.552,1.454c2.948,1.735,3.277,5.3,1.672,8.053c-1.826,3.132-6.099,2.993-8.606,0.902
					c-2.548-2.124-2.233-6.445-0.077-8.66C173.593,44.766,173.075,44.247,172.731,44.583L172.731,44.583z"/>
			</g>
		</g>
		<g>
			<g>
				<path fill="#8AA9FC" d="M269.644,64.398c-2.679,2.622-3.351,6.516-1.015,9.61c2.316,3.069,6.999,3.354,9.959,1.187
					c2.942-2.155,3.469-6.292,1.837-9.361c-1.817-3.415-6.4-4.855-9.996-4.15c-0.853,0.167-0.642,1.505,0.202,1.492
					c2.368-0.037,4.479,0.234,6.553,1.455c2.947,1.735,3.276,5.3,1.671,8.053c-1.827,3.133-6.098,2.992-8.607,0.902
					c-2.549-2.123-2.233-6.446-0.076-8.66C270.507,64.581,269.988,64.062,269.644,64.398L269.644,64.398z"/>
			</g>
		</g>
		<g>
			<g>
				<path fill="#E3707F" d="M222.702,71.03c-0.85,5.12-1.617,10.248-2.357,15.386c-0.098,0.678,0.361,1.145,1.043,1.042
					c4.804-0.725,9.604-1.428,14.375-2.351c0.512-0.099,0.704-0.74,0.471-1.156c-2.752-4.903-6.165-10.513-10.988-13.644
					c-0.869-0.564-1.659,0.649-1.048,1.358c3.751,4.353,7.857,7.934,10.677,13.081c0.227-0.395,0.453-0.79,0.68-1.185
					c-4.896,0.616-9.751,1.446-14.617,2.262c0.357,0.272,0.716,0.545,1.073,0.817c0.634-5.152,1.233-10.303,1.756-15.467
					C223.827,70.568,222.801,70.43,222.702,71.03L222.702,71.03z"/>
			</g>
		</g>
		<g>
			<g>
				<path fill="#E8947E" d="M235.725,40.521c-5.039,0.685-10.138,1.521-15.087,2.692c-1.018,0.241-0.565,1.687,0.422,1.532
					c5.013-0.783,10.037-1.928,14.948-3.194C236.697,41.374,236.384,40.431,235.725,40.521L235.725,40.521z"/>
			</g>
		</g>
		<g>
			<g>
				<path fill="#EDC483" d="M256.702,86.703c1.854,4.786,3.855,9.608,6.18,14.184c0.404,0.794,1.793,0.227,1.453-0.612
					c-1.934-4.761-4.253-9.443-6.656-13.983C257.399,85.762,256.481,86.133,256.702,86.703L256.702,86.703z"/>
			</g>
		</g>
		<g>
			<g>
				<path fill="#6E3281" d="M257.909,43.533c-0.066-0.098-0.148-0.178-0.248-0.241c-0.35-0.273-0.766-0.393-1.176-0.152
					c-0.413,0.242-0.673,0.908-0.349,1.328c0.124,0.161,0.235,0.315,0.39,0.447C257.491,45.74,258.714,44.5,257.909,43.533
					L257.909,43.533z"/>
			</g>
		</g>
		<polygon fill="#FFFFFF" points="165.1,138.636 165.1,146.7 222.024,142.3 222.024,134.127 		"/>
		<polygon fill="#FFFFFF" points="165.1,150.453 165.1,157.885 209.343,154.927 209.343,147.741 		"/>
		
			<linearGradient id="SVGID_1_" gradientUnits="userSpaceOnUse" x1="183.9185" y1="202.667" x2="189.5611" y2="222.0635" gradientTransform="matrix(0.9973 -0.074 0.074 0.9973 -27.499 -34.0592)">
			<stop  offset="0.05" style="stop-color:#6BC1CD"/>
			<stop  offset="1" style="stop-color:#A8EBA4"/>
		</linearGradient>
		<polygon fill="url(#SVGID_1_)" points="165.372,167.521 165.956,175.39 188.016,173.752 187.821,165.495 		"/>
		<circle fill="#968ABC" cx="105.698" cy="127.288" r="1.147"/>
		<circle fill="#968ABC" cx="109.553" cy="126.682" r="1.147"/>
		<circle fill="#968ABC" cx="113.556" cy="126.141" r="1.147"/>
		<linearGradient id="SVGID_2_" gradientUnits="userSpaceOnUse" x1="117.4995" y1="159.6543" x2="151.7056" y2="159.6543">
			<stop  offset="0" style="stop-color:#E58F7E"/>
			<stop  offset="0.1391" style="stop-color:#E4857E"/>
			<stop  offset="0.6977" style="stop-color:#E0637F"/>
			<stop  offset="1" style="stop-color:#DE567F"/>
		</linearGradient>
		<path fill="url(#SVGID_2_)" d="M126.42,143.828c0,0,0.975,5.961,6.769,6.171c5.502,0.199,5.502-6.969,5.502-6.969l13.014,6.769
			l-1.99,8.086l-5.375-2.312l1.613,19.895l-21.92,0.81l-0.399-19.311l-3.363,2.688l-2.772-7.275L126.42,143.828z"/>
		<polygon fill="#7B72A0" points="5.809,240.775 5.809,244.84 115.636,242.806 242.584,227.808 		"/>
		<polygon fill="#968ABC" points="242.584,227.808 109.966,238.968 5.809,240.775 97.004,232.402 		"/>
		<g>
			<path fill="#FFDCA9" d="M212.409,193.18v37.504c0,1.99,1.615,3.605,3.607,3.605h58.568c1.992,0,3.608-1.615,3.608-3.605V193.18
				c0-1.994-1.616-3.609-3.608-3.609h-58.568C214.024,189.57,212.409,191.186,212.409,193.18z"/>
			<circle fill="#D2A133" cx="224.458" cy="201.943" r="5.285"/>
			<circle opacity="0.45" fill="#D2A133" cx="229.934" cy="201.943" r="5.286"/>
			<polygon fill="#D2A133" points="212.472,216.934 278.256,216.934 278.256,225.198 212.472,223.695 			"/>
		</g>
		<polygon fill="#968ABC" points="124.197,189.57 124.197,213.547 148.084,211.932 147.28,188.011 		"/>
		<polygon fill="#968ABC" points="153.427,188.571 153.427,212.546 177.314,210.931 176.512,187.009 		"/>
		<polygon fill="#968ABC" points="182.819,187.364 182.819,211.342 206.707,209.726 205.905,185.805 		"/>
		<g>
			<g>
				<g>
					
						<ellipse transform="matrix(-0.5785 0.8157 -0.8157 -0.5785 175.6256 94.2714)" fill="#473A60" cx="63.455" cy="92.513" rx="1.001" ry="0.26"/>
				</g>
				<g>
					
						<ellipse transform="matrix(-0.5411 0.841 -0.841 -0.5411 174.9214 96.2014)" fill="#473A60" cx="61.213" cy="95.827" rx="1" ry="0.26"/>
				</g>
				<g>
					
						<ellipse transform="matrix(-0.4937 0.8697 -0.8697 -0.4937 174.6467 96.8102)" fill="#473A60" cx="59.141" cy="99.247" rx="1" ry="0.26"/>
				</g>
				<g>
					
						<ellipse transform="matrix(-0.4353 0.9003 -0.9003 -0.4353 174.7507 95.9619)" fill="#473A60" cx="57.279" cy="102.788" rx="1.002" ry="0.26"/>
				</g>
				<g>
					
						<ellipse transform="matrix(-0.3641 0.9314 -0.9314 -0.3641 175.0947 93.359)" fill="#473A60" cx="55.676" cy="106.454" rx="1" ry="0.26"/>
				</g>
				<g>
					
						<ellipse transform="matrix(-0.2794 0.9602 -0.9602 -0.2794 175.4289 88.8188)" fill="#473A60" cx="54.387" cy="110.236" rx="1" ry="0.26"/>
				</g>
				<g>
					
						<ellipse transform="matrix(-0.1789 0.9839 -0.9839 -0.1789 175.3163 81.9478)" fill="#473A60" cx="53.465" cy="114.126" rx="1" ry="0.261"/>
				</g>
				<g>
					
						<ellipse transform="matrix(-0.0681 0.9977 -0.9977 -0.0681 174.3948 73.2917)" fill="#473A60" cx="52.969" cy="118.092" rx="1" ry="0.261"/>
				</g>
				<g>
					
						<ellipse transform="matrix(0.0508 0.9987 -0.9987 0.0508 172.1746 63.0264)" fill="#473A60" cx="52.931" cy="122.089" rx="1" ry="0.261"/>
				</g>
				<g>
					
						<ellipse transform="matrix(0.1793 0.9838 -0.9838 0.1793 167.8326 50.9319)" fill="#473A60" cx="53.389" cy="126.06" rx="1.002" ry="0.261"/>
				</g>
				<g>
					
						<ellipse transform="matrix(0.3181 0.9481 -0.9481 0.3181 160.2682 37.0464)" fill="#473A60" cx="54.382" cy="129.93" rx="0.999" ry="0.26"/>
				</g>
				<g>
					
						<ellipse transform="matrix(0.4625 0.8866 -0.8866 0.4625 148.5239 22.2142)" fill="#473A60" cx="55.941" cy="133.601" rx="1" ry="0.26"/>
				</g>
				<g>
					
						<ellipse transform="matrix(0.6192 0.7852 -0.7852 0.6192 129.6626 6.528)" fill="#473A60" cx="58.1" cy="136.957" rx="1" ry="0.26"/>
				</g>
				<g>
					
						<ellipse transform="matrix(0.7758 0.631 -0.631 0.7758 101.8734 -7.0749)" fill="#473A60" cx="60.892" cy="139.806" rx="1" ry="0.261"/>
				</g>
				<g>
					
						<ellipse transform="matrix(0.9196 0.3928 -0.3928 0.9196 60.8972 -13.8494)" fill="#473A60" cx="64.29" cy="141.879" rx="1" ry="0.26"/>
				</g>
				<g>
					<path fill="#473A60" d="M69.148,142.829c0.013,0.146-0.319,0.275-0.709,0.259c-0.378-0.011-0.726-0.151-0.649-0.273
						c-0.091-0.166,0.309-0.258,0.667-0.247C68.84,142.583,69.136,142.688,69.148,142.829z"/>
				</g>
				<g>
					<path fill="#473A60" d="M72.976,141.759c0.069,0.126-0.302,0.422-0.829,0.657c-0.523,0.176-0.985,0.208-1.031,0.072
						c-0.046-0.137,0.341-0.39,0.865-0.566C72.461,141.705,72.908,141.633,72.976,141.759z"/>
				</g>
				<g>
					<path fill="#473A60" d="M76.08,139.278c0.114,0.086-0.107,0.508-0.5,0.936c-0.414,0.366-0.827,0.575-0.922,0.468
						c-0.095-0.108,0.163-0.492,0.577-0.858C75.585,139.434,75.965,139.191,76.08,139.278z"/>
				</g>
				<g>
					<path fill="#473A60" d="M77.68,135.67c0.144,0.013,0.165,0.493,0.039,1.068c-0.19,0.519-0.456,0.897-0.59,0.848
						c-0.135-0.05-0.088-0.51,0.102-1.027C77.332,136.053,77.537,135.657,77.68,135.67z"/>
				</g>
				<g>
					<path fill="#473A60" d="M76.996,131.794c0.125-0.071,0.419,0.309,0.646,0.853c0.139,0.534,0.138,0.996-0.001,1.032
						c-0.139,0.036-0.364-0.368-0.503-0.902C76.931,132.307,76.871,131.865,76.996,131.794z"/>
				</g>
				<g>
					<path fill="#473A60" d="M74.342,128.853c0.078-0.121,0.515,0.068,0.972,0.426c0.396,0.385,0.635,0.781,0.535,0.884
						c-0.101,0.103-0.502-0.126-0.898-0.511C74.535,129.333,74.264,128.973,74.342,128.853z"/>
				</g>
				<g>
					<path fill="#473A60" d="M70.681,127.315c0.023-0.142,0.498-0.146,1.059-0.004c0.52,0.188,0.901,0.449,0.852,0.584
						s-0.509,0.093-1.029-0.095C71.052,127.677,70.658,127.458,70.681,127.315z"/>
				</g>
				<g>
					<path fill="#473A60" d="M66.716,127.464c-0.045-0.136,0.38-0.353,0.951-0.476c0.55-0.052,1.007,0.023,1.02,0.166
						c0.014,0.143-0.421,0.301-0.971,0.353C67.209,127.623,66.761,127.601,66.716,127.464z"/>
				</g>
				<g>
					<path fill="#473A60" d="M63.224,129.362c-0.095-0.108,0.199-0.479,0.66-0.826c0.471-0.289,0.913-0.424,0.988-0.302
						s-0.245,0.456-0.715,0.746C63.738,129.3,63.319,129.47,63.224,129.362z"/>
				</g>
				<g>
					
						<ellipse transform="matrix(-0.577 0.8168 -0.8168 -0.577 204.0498 157.5084)" fill="#473A60" cx="61.236" cy="131.595" rx="1" ry="0.261"/>
				</g>
				<g>
					
						<ellipse transform="matrix(-0.3132 0.9497 -0.9497 -0.3132 206.428 121.0256)" fill="#473A60" cx="59.453" cy="135.153" rx="1.002" ry="0.26"/>
				</g>
				<g>
					<path fill="#473A60" d="M58.716,140.071c-0.143,0.005-0.272-0.448-0.254-1.008c0.016-0.563,0.181-1.008,0.323-0.99
						c0.143,0.018,0.212,0.464,0.197,1.006C58.965,139.623,58.861,140.066,58.716,140.071z"/>
				</g>
				<g>
					
						<ellipse transform="matrix(0.212 0.9773 -0.9773 0.212 186.3811 54.9381)" fill="#473A60" cx="59.125" cy="143.039" rx="1" ry="0.26"/>
				</g>
				<g>
					
						<ellipse transform="matrix(0.3989 0.917 -0.917 0.3989 170.9246 32.907)" fill="#473A60" cx="60.361" cy="146.832" rx="1" ry="0.26"/>
				</g>
				<g>
					
						<ellipse transform="matrix(0.5339 0.8456 -0.8456 0.5339 156.1437 17.4561)" fill="#473A60" cx="62.239" cy="150.356" rx="1.002" ry="0.261"/>
				</g>
				<g>
					<path fill="#473A60" d="M65.211,154.378c-0.11,0.092-0.487-0.179-0.837-0.607c-0.351-0.427-0.541-0.857-0.425-0.944
						c0.114-0.086,0.478,0.188,0.828,0.615C65.125,153.868,65.322,154.286,65.211,154.378z"/>
				</g>
				<g>
					
						<ellipse transform="matrix(0.7055 0.7087 -0.7087 0.7055 130.7702 -1.5562)" fill="#473A60" cx="67.258" cy="156.576" rx="1" ry="0.261"/>
				</g>
				<g>
					
						<ellipse transform="matrix(0.7737 0.6336 -0.6336 0.7737 116.7981 -8.4433)" fill="#473A60" cx="70.217" cy="159.263" rx="1" ry="0.26"/>
				</g>
				<g>
					
						<ellipse transform="matrix(0.8368 0.5475 -0.5475 0.8368 100.4736 -13.8334)" fill="#473A60" cx="73.442" cy="161.628" rx="1.002" ry="0.26"/>
				</g>
				<g>
					
						<ellipse transform="matrix(0.8939 0.4482 -0.4482 0.8939 81.4923 -17.116)" fill="#473A60" cx="76.91" cy="163.625" rx="1" ry="0.26"/>
				</g>
				<g>
					
						<ellipse transform="matrix(0.9416 0.3368 -0.3368 0.9416 60.3377 -17.4876)" fill="#473A60" cx="80.582" cy="165.198" rx="0.999" ry="0.261"/>
				</g>
				<g>
					<path fill="#473A60" d="M85.402,166.508c-0.024,0.143-0.367,0.196-0.753,0.113c-0.378-0.079-0.691-0.269-0.623-0.396
						c-0.015-0.155,0.357-0.192,0.73-0.113C85.141,166.194,85.426,166.366,85.402,166.508z"/>
				</g>
				<g>
					
						<ellipse transform="matrix(0.9973 0.0737 -0.0737 0.9973 12.5432 -6.0619)" fill="#473A60" cx="88.379" cy="166.866" rx="1" ry="0.261"/>
				</g>
				<g>
					
						<ellipse transform="matrix(0.9979 -0.0645 0.0645 0.9979 -10.5654 6.3016)" fill="#473A60" cx="92.374" cy="166.885" rx="1" ry="0.26"/>
				</g>
				<g>
					
						<ellipse transform="matrix(0.9786 -0.2056 0.2056 0.9786 -32.1414 23.3587)" fill="#473A60" cx="96.333" cy="166.345" rx="1" ry="0.261"/>
				</g>
				<g>
					
						<ellipse transform="matrix(0.9369 -0.3497 0.3497 0.9369 -51.4621 45.4678)" fill="#473A60" cx="100.172" cy="165.235" rx="1" ry="0.261"/>
				</g>
				<g>
					
						<ellipse transform="matrix(0.869 -0.4948 0.4948 0.869 -67.3244 72.7715)" fill="#473A60" cx="103.787" cy="163.547" rx="0.999" ry="0.261"/>
				</g>
			</g>
		</g>
		<g>
			<g>
				<g>
					
						<ellipse transform="matrix(0.9911 -0.1335 0.1335 0.9911 -9.5532 15.7993)" fill="#473A60" cx="113.078" cy="79.161" rx="1.001" ry="0.26"/>
				</g>
				<g>
					
						<ellipse transform="matrix(0.9999 -0.0149 0.0149 0.9999 -1.162 1.7528)" fill="#473A60" cx="117.063" cy="78.865" rx="1" ry="0.261"/>
				</g>
				<g>
					
						<ellipse transform="matrix(0.9951 0.0992 -0.0992 0.9951 8.4342 -11.6148)" fill="#473A60" cx="121.055" cy="79.035" rx="1" ry="0.261"/>
				</g>
				<g>
					
						<ellipse transform="matrix(0.9779 0.2089 -0.2089 0.9779 19.3988 -24.3572)" fill="#473A60" cx="125.004" cy="79.653" rx="1" ry="0.26"/>
				</g>
				<g>
					
						<ellipse transform="matrix(0.9494 0.3142 -0.3142 0.9494 31.8796 -36.3996)" fill="#473A60" cx="128.863" cy="80.701" rx="1.001" ry="0.26"/>
				</g>
				<g>
					
						<ellipse transform="matrix(0.9097 0.4153 -0.4153 0.9097 46.1009 -47.6458)" fill="#473A60" cx="132.588" cy="82.163" rx="1.001" ry="0.261"/>
				</g>
				<g>
					
						<ellipse transform="matrix(0.8586 0.5126 -0.5126 0.8586 62.3192 -57.9047)" fill="#473A60" cx="136.131" cy="84.021" rx="1.001" ry="0.261"/>
				</g>
				<g>
					
						<ellipse transform="matrix(0.7958 0.6055 -0.6055 0.7958 80.7045 -66.8248)" fill="#473A60" cx="139.442" cy="86.259" rx="0.999" ry="0.26"/>
				</g>
				<g>
					
						<ellipse transform="matrix(0.7203 0.6937 -0.6937 0.7203 101.4897 -73.9774)" fill="#473A60" cx="142.476" cy="88.858" rx="1" ry="0.261"/>
				</g>
				<g>
					<path fill="#473A60" d="M145.815,92.574c-0.115,0.086-0.426-0.127-0.709-0.475c-0.282-0.348-0.424-0.703-0.313-0.794
						s0.434,0.115,0.718,0.467C145.796,92.122,145.93,92.487,145.815,92.574z"/>
				</g>
				<g>
					
						<ellipse transform="matrix(0.5349 0.8449 -0.8449 0.5349 148.906 -80.4362)" fill="#473A60" cx="147.518" cy="95.041" rx="1" ry="0.26"/>
				</g>
				<g>
					
						<ellipse transform="matrix(0.4348 0.9005 -0.9005 0.4348 173.2129 -78.8977)" fill="#473A60" cx="149.457" cy="98.534" rx="1" ry="0.261"/>
				</g>
				<g>
					
						<ellipse transform="matrix(0.332 0.9433 -0.9433 0.332 197.2877 -74.1405)" fill="#473A60" cx="150.991" cy="102.225" rx="1" ry="0.261"/>
				</g>
				<g>
					
						<ellipse transform="matrix(0.2268 0.9739 -0.9739 0.2268 220.9048 -66.1393)" fill="#473A60" cx="152.109" cy="106.064" rx="1.001" ry="0.26"/>
				</g>
				<g>
					
						<ellipse transform="matrix(0.12 0.9928 -0.9928 0.12 243.6808 -54.8957)" fill="#473A60" cx="152.805" cy="110.004" rx="1.001" ry="0.261"/>
				</g>
				<g>
					
						<ellipse transform="matrix(0.0107 0.9999 -0.9999 0.0107 265.4146 -40.2863)" fill="#473A60" cx="153.068" cy="113.996" rx="1.001" ry="0.261"/>
				</g>
				<g>
					
						<ellipse transform="matrix(-0.1011 0.9949 -0.9949 -0.1011 285.7297 -22.1859)" fill="#473A60" cx="152.888" cy="117.99" rx="1" ry="0.261"/>
				</g>
				<g>
					
						<ellipse transform="matrix(-0.2154 0.9765 -0.9765 -0.2154 304.1266 -0.4769)" fill="#473A60" cx="152.255" cy="121.935" rx="1" ry="0.261"/>
				</g>
				<g>
					
						<ellipse transform="matrix(-0.3123 0.95 -0.95 -0.3123 317.5774 20.4755)" fill="#473A60" cx="151.377" cy="125.188" rx="0.372" ry="0.26"/>
				</g>
			</g>
		</g>
		<path fill="#DDD2F3" d="M77.603,84.91c0,0.181-0.421,8.613-0.421,8.613h6.867l-0.965-8.613H77.603z"/>
		<path fill="#DDD2F3" d="M93.171,76.571c0,0.18,0.885,8.613,0.885,8.613h5.559l-0.963-8.613H93.171z"/>
	</g>
</g>
</svg>
